.
 
http://www.scenetime.com    -   SceneTime [ We been having it ] !!!


How come you press harder on a remote control when you know the battery is dead? so you better seed to get speed ;)

        Seed back for speed


...................................NFO:.................................................[img]http://img841.imageshack.us/img841/5937/largowinchhd.jpg[/img]


[color=blue][size=5][b]Largo.Winch.2.2011.BDRip.XVID.AC3.HQ.Hive-CM8[/b][/size][/color]

[b]aka The.Burma.Conspiracy


Thx Hive

CM8 Doing It Right The First Time :D


Source: Bluray

Video: 720x304 @bitrate 1800 2pass
Audio: English TrueHD AC3 640 to AC3 5.1 @448
Sample: yes included
Subs: yes hardcoded for foreign parts only[/b]


[url]http://www.imdb.com/title/tt1322333/[/url]


General
Complete name                    : Largo.Winch.2.2011.BDRip.XVID.AC3.HQ.Hive-CM8.avi
Format                           : AVI
Format/Info                      : Audio Video Interleave
File size                        : 1.87 GiB
Duration                         : 1h 58mn
Overall bit rate                 : 2 255 Kbps
Writing application              : Nandub v1.0rc2
Writing library                  : Nandub build 1853/release

Video
ID                               : 0
Format                           : MPEG-4 Visual
Format profile                   : Advanced Simple@L5
Format settings, BVOP            : 1
Format settings, QPel            : Yes
Format settings, GMC             : No warppoints
Format settings, Matrix          : Default (H.263)
Muxing mode                      : Packed bitstream
Codec ID                         : XVID
Codec ID/Hint                    : XviD
Duration                         : 1h 58mn
Bit rate                         : 1 798 Kbps
Width                            : 720 pixels
Height                           : 304 pixels
Display aspect ratio             : 2.40:1
Frame rate                       : 23.976 fps
Color space                      : YUV
Chroma subsampling               : 4:2:0
Bit depth                        : 8 bits
Scan type                        : Progressive
Compression mode                 : Lossy
Bits/(Pixel*Frame)               : 0.343
Stream size                      : 1.49 GiB (80%)
Writing library                  : XviD 1.2.1 (UTC 2008-12-04)

Audio
ID                               : 1
Format                           : AC-3
Format/Info                      : Audio Coding 3
Mode extension                   : CM (complete main)
Codec ID                         : 2000
Duration                         : 1h 58mn
Bit rate mode                    : Constant
Bit rate                         : 448 Kbps
Channel(s)                       : 6 channels
Channel positions                : Front: L C R, Side: L R, LFE
Sampling rate                    : 48.0 KHz
Bit depth                        : 16 bits
Compression mode                 : Lossy
Stream size                      : 379 MiB (20%)
Alignment                        : Split accross interleaves
Interleave, duration             : 42 ms (1.00 video frame)
Interleave, preload duration     : 500 ms


Plot:
Largo Winch, the newly appointed CEO of the W Group, is accused of crimes against humanity
on the very day he announces his intention to sell his corporation and use the proceeds to
create a humanitarian foundation.


Cast:
Tomer Sisley       ...  Largo Winch
Sharon Stone       ...  Diane Francken
Ulrich Tukur       ...  Dwight Cochrane
Olivier Barthelemy ...  Simon Ovronnaz


[img]http://img837.imageshack.us/img837/2297/llaa.png[/img]
[img]http://img11.imageshack.us/img11/2884/llalaa.png[/img]
[img]http://img819.imageshack.us/img819/7443/24916065.png[/img]
[img]http://img703.imageshack.us/img703/9531/llalalaa.png[/img]
[img]http://img688.imageshack.us/img688/9458/llalalalaa.png[/img]
[img]http://img715.imageshack.us/img715/636/llalalalalaa.png[/img]
[img]http://img560.imageshack.us/img560/9020/llalalalalalaa.png[/img]
[img]http://img42.imageshack.us/img42/6835/llalalalalalalaa.png[/img]
[img]http://img843.imageshack.us/img843/8088/llalalalalalalalaa.png[/img]



Greetz

ViSiON,SANTi,MAGNET,THC,T0XiC,LKRG,IMAGiNE,WBZ,FLAWL3SS,NOVA
D2U,Vik,Rapeseed,SAFC,goldadvance,MEMORY100,KaN1vE,Unevano,
Pinnz,Wayne,Mr Hive and all P2P groups 
Great Work Guys :D

FYS

CM8@hushmail.com